# xmcd
#
# Track frame offsets: 
#        150
#        12511
#        23917
#        37206
#        50424
#        71627
#        91238
#        92803
#        105688
#        123638
#        146623
#        155183
#        174330
#        193558
#        194677
#        208661
#        223402
#        224930
#        237941
#        253321
#        267827
#
# Disc length: 3787 seconds
#
# Revision: 0
# Processed by: cddbd v1.5.2PL0 Copyright (c) Steve Scherf et al.
# Submitted via: ExactAudioCopy v1.0b3
#
DISCID=570ec915
DTITLE=Paul Geremia - Love My Stuff
DYEAR=2011
DGENRE=Blues
TTITLE0=See See Rider
TTITLE1=Shuckin' Sugar Blues
TTITLE2=Mama Don't Allow No Low Down Hangin' Around
TTITLE3=Love My Stuff-Bird Nest Bound
TTITLE4=Lovin Sam, The Sheik of Alabam'
TTITLE5=Death Don't Have No Mercy
TTITLE6=Intro-Silver City Bound
TTITLE7=Silver City Bound
TTITLE8=Cocaine Princess
TTITLE9=Special Agent Blues
TTITLE10=Stomp Down Rider
TTITLE11=Dr. Jazz
TTITLE12=Where Did I Lose Your Love?
TTITLE13=Intro - My Money Never Runs Out
TTITLE14=My Money Never Runs Out
TTITLE15=Lock And Key Blues
TTITLE16=Intro - Stray Dog Shuffle
TTITLE17=Stray Dog Shuffle
TTITLE18=Savannah Mama
TTITLE19=Crawlin' King Snake
TTITLE20=Kickin' In The Country
EXTD=
EXTT0=
EXTT1=
EXTT2=
EXTT3=
EXTT4=
EXTT5=
EXTT6=
EXTT7=
EXTT8=
EXTT9=
EXTT10=
EXTT11=
EXTT12=
EXTT13=
EXTT14=
EXTT15=
EXTT16=
EXTT17=
EXTT18=
EXTT19=
EXTT20=
PLAYORDER=
